<svg xmlns="http://www.w3.org/2000/svg" viewBox="0 0 508.51 73.38"><defs><style>.cls-1{fill:#364795;fill-rule:evenodd;}</style></defs><g id="Capa_2" data-name="Capa 2"><g id="Capa_1-2" data-name="Capa 1"><path class="cls-1" d="M7.9,56.82H21.33V27.37h9.54V18H21.33V15.58c0-3.8,1.34-6.19,4.77-6.19a12.35,12.35,0,0,1,4.25.6L31.17.74A37.53,37.53,0,0,0,24.31,0C13.57,0,8.13,4,8.13,15.58V18H0v9.4H7.9Z"/><path class="cls-1" d="M75.53,56.82a47.22,47.22,0,0,1-.74-9.17V33.18c0-11.85-8.58-16.1-18.5-16.1a40.16,40.16,0,0,0-15.51,2.75l.22,9.1A25.38,25.38,0,0,1,53.38,26c4.85,0,8.8,1.41,8.88,6.71A39.12,39.12,0,0,0,56,32.21c-7.16,0-20.06,1.42-20.06,13.28,0,8.42,6.86,12.23,14.54,12.23,5.52,0,9.24-2.17,12.3-7h.15c0,2,.22,4,.3,6.11ZM48.46,44.52c0-3.73,3.58-5.15,8.13-5.15,2,0,3.95.15,5.67.23,0,4.54-3.21,9.17-8.28,9.17C50.85,48.77,48.46,47.2,48.46,44.52Z"/><path class="cls-1" d="M116.24,19.24a24.15,24.15,0,0,0-10.66-2.16C92.75,17.08,83,24.53,83,37.43s9.77,20.29,22.6,20.29a36.18,36.18,0,0,0,11-1.72l-.3-10a18.39,18.39,0,0,1-8.35,1.86c-5.82,0-11-4-11-10.21,0-6.71,4.48-10.74,10.29-10.74a14.74,14.74,0,0,1,8.13,2.16Z"/><path class="cls-1" d="M120.19,27.37h7.69V43.18c0,9.24,2.91,14.54,14.91,14.54a63.87,63.87,0,0,0,8.43-.75l-.45-8.72a26.13,26.13,0,0,1-4.1.52c-4.25,0-5.37-2.39-5.37-7.09V27.37h9.4V18h-9.4V5.14l-13.2,4.1V18h-7.91Z"/><path class="cls-1" d="M179,57.72c12.83,0,22.6-7.46,22.6-20.29S191.78,17.08,179,17.08s-22.59,7.45-22.59,20.35S166.13,57.72,179,57.72Zm0-9.4c-6.19,0-8.72-5.14-8.72-10.89s2.53-11,8.72-11,8.73,5.15,8.73,11S185.14,48.32,179,48.32Z"/><path class="cls-1" d="M237.94,17.52a28.89,28.89,0,0,0-4.54-.44c-5.82,0-9.18,3.13-11.49,8.05h-.15V18H209.53V56.82H223V40.42c0-7.61,3.51-12.16,9.77-12.16a15.38,15.38,0,0,1,4.55.45Z"/><path class="cls-1" d="M275.07,48.25a22.5,22.5,0,0,1-11.7,3.8,12.44,12.44,0,0,1-12.53-12.68H278c0-12.23-4.1-21.48-16.78-21.48-10.73,0-17.82,8-17.82,19.24,0,12.38,6.19,20.59,19.69,20.59a29.07,29.07,0,0,0,12-2.46Zm-24.23-14.1c.52-4.92,3.35-10.59,10.21-10.59,6,0,9.48,4.78,9.48,10.59Z"/><path class="cls-1" d="M288.86,56.82h7V39.22c0-9.24,3.58-15.66,11.56-15.66,6.11.38,8.05,4.7,8.05,13.57V56.82h7V34.23c0-10.22-4.4-16.34-14.24-16.34-5.29,0-10.36,2.62-12.45,6.94h-.15v-6h-6.79Z"/><path class="cls-1" d="M365.07,48.25a22.58,22.58,0,0,1-11.71,3.8,12.44,12.44,0,0,1-12.53-12.68H368c0-12.23-4.1-21.48-16.77-21.48-10.74,0-17.83,8-17.83,19.24,0,12.38,6.19,20.59,19.69,20.59a29.13,29.13,0,0,0,12-2.46Zm-24.24-14.1c.52-4.92,3.36-10.59,10.22-10.59,6,0,9.47,4.78,9.47,10.59Z"/><path class="cls-1" d="M378.85,56.82h7V39.52C385.86,30,390,24,396.23,24a10.44,10.44,0,0,1,3.88.67V18.42a19.67,19.67,0,0,0-4.63-.53c-4,0-8.05,2.84-9.92,6.79h-.14V18.79h-6.57Z"/><path class="cls-1" d="M443,18.79h-6.49v5.67h-.15c-2.09-4.1-5.82-6.57-12.53-6.57-11.48,0-17,10.45-17,20.21s5.37,18.72,16.26,18.72a15.89,15.89,0,0,0,12.75-5.89H436v3.73c0,8.05-4.4,13-11.78,13-5.15,0-8.36-1-13.73-3.43l-.74,6.49c6.11,2.09,9.62,2.61,13.65,2.61C437,73.38,443,66.74,443,55.18ZM424.86,51.15c-6.57,0-10.59-6.26-10.59-13.42,0-6.49,3.5-14.17,10.59-14.17,7.45,0,11.11,6.79,11.11,14.69C436,45.34,431.42,51.15,424.86,51.15Z"/><path class="cls-1" d="M457.29,56.82h7v-38h-7Zm7.45-54.43h-7.9v7.9h7.9Z"/><path class="cls-1" d="M480.77,27.44a17.91,17.91,0,0,1,11-3.88c7,0,9.39,3.36,9.39,9.92-2.75-.15-4.7-.15-7.46-.15-7.23,0-17.67,3-17.67,12.53,0,8.28,5.74,11.86,13.95,11.86A14.12,14.12,0,0,0,501.8,51.9H502v4.92h6.56a59.72,59.72,0,0,1-.3-7.45V33.63c0-10.36-4.4-15.74-15.29-15.74a24.18,24.18,0,0,0-12.52,3.59ZM501.2,42.06c0,5.66-3.65,10-10.59,10-3.2,0-7.08-2.16-7.08-6.19,0-6.71,9.39-7.31,13.2-7.31,1.49,0,3,.15,4.47.15Z"/></g></g></svg>